# xmcd CD database file
#
# Track frame offsets:
#	150
#	12731
#	24196
#	36041
#	47661
#	60813
#	72384
#	83859
#	96833
#	109605
#	122064
#	134731
#	148104
#	161625
#	174837
#	188058
#	201925
#	215027
#	228914
#	241041
#	254252
#	266503
#	280503
#	293909
#
# Disc length: 4281 seconds
#
# Revision: 0
# Processed by: cddbd v1.5PL3 Copyright (c) Steve Scherf et al.
# Submitted via: CDex 1.50beta10
#
DISCID=5410b718
DTITLE=Clarence "Gatemouth" Brown - His First Recordings 1947-1951
DYEAR=2002
DGENRE=Blues
TTITLE0=Guitar In My Hand
TTITLE1=Without Me Baby
TTITLE2=After Sunset
TTITLE3=Gatemouth Boogie
TTITLE4=Didn't Reach My Goal
TTITLE5=Atomic Energy
TTITLE6=Mercy On Me
TTITLE7=My Time Is Expensive
TTITLE8=Mary Is Fine
TTITLE9=I Live My Life
TTITLE10=Two O'Clock In The Morning
TTITLE11=Boogie Rambler
TTITLE12=I've Been Mistreated
TTITLE13=It Can Never Be That Way
TTITLE14=Justice Blues
TTITLE15=Just Got Lucky
TTITLE16=She Walk Right In
TTITLE17=Win With Me Baby
TTITLE18=Too Late Baby
TTITLE19=Taking My Chances
TTITLE20=Baby Take It Easy
TTITLE21=She Winked He Eye
TTITLE22=Sad Hour
TTITLE23=Pale Dry Boogie Part 1 and 2
EXTD=YEAR: 2002
EXTT0=
EXTT1=
EXTT2=
EXTT3=
EXTT4=
EXTT5=
EXTT6=
EXTT7=
EXTT8=
EXTT9=
EXTT10=
EXTT11=
EXTT12=
EXTT13=
EXTT14=
EXTT15=
EXTT16=
EXTT17=
EXTT18=
EXTT19=
EXTT20=
EXTT21=
EXTT22=
EXTT23=
PLAYORDER=
